<svg width="24" height="24" viewBox="0 0 24 24" fill="none" xmlns="http://www.w3.org/2000/svg">
<path fill-rule="evenodd" clip-rule="evenodd" d="M5.38601 13.892C4.52001 13.063 3.99801 11.867 4.00001 10.646C4.00201 9.287 4.63101 8.052 5.49601 7.346L5.50001 7.342C4.52801 4.269 8.16001 1.101 10 0C9.79401 1.539 10.008 2.713 11.487 3.758C14.341 5.804 19.991 6.309 20 10.919C20.002 12.099 19.409 13.171 18.528 14.05L17.877 19H16.18L15.347 24H8.65301L7.82001 19H6.13601L5.38601 13.892ZM6.58601 8.951C6.29001 9.314 6.10401 9.765 6.02501 10.346C5.85401 11.612 6.63701 14.461 7.86401 14.5H16.386C17.157 13.904 18.046 11.561 17.995 10.591C17.78 7.137 11.106 7.684 8.65301 3.758C4.47601 8.685 11.892 9.922 15.934 10.973L15.999 11C14.318 10.948 8.88301 10.847 6.58601 8.951Z" fill="#0066FF"/>
</svg>
