<svg xmlns="http://www.w3.org/2000/svg" fill="none" viewBox="2.47 2.43 27.13 27.12" width="3rem">

 <g>
  <title>Layer 1</title>
  <path id="svg_2" fill="#394149" class="ccustom" d="m28.48,10.62c-0.5089,-1.16364 -1.1824,-2.24807 -2,-3.22c-1.2085,-1.47966 -2.7167,-2.68661 -4.4253,-3.5414c-1.7086,-0.85478 -3.5789,-1.33803 -5.4877,-1.41794c-1.9088,-0.07991 -3.8129,0.24533 -5.587,0.95433c-1.77403,0.70899 -3.37783,1.78566 -4.7058,3.15914c-1.32798,1.37347 -2.35003,3.01262 -2.99888,4.80957c-0.64885,1.7969 -0.9098,3.7109 -0.76566,5.6159c0.14415,1.9051 0.6901,3.758 1.60194,5.4368c0.91184,1.6789 2.16889,3.1456 3.68841,4.3036c0.975,0.7579 2.05235,1.374 3.19999,1.83c1.609,0.6594 3.3311,0.999 5.07,1c3.5894,-0.0079 7.0292,-1.4387 9.5655,-3.9787c2.5362,-2.54 3.9619,-5.9819 3.9645,-9.5713c0.0026,-1.8515 -0.3787,-3.6834 -1.12,-5.38l0,0zm-12.42,-5.43001c1.5616,-0.00016 3.1043,0.34114 4.52,1l0,0c-0.3452,0.14917 -0.7082,0.25336 -1.08,0.31001c-1.2234,0.17709 -2.3567,0.74507 -3.2308,1.61917c-0.8741,0.87409 -1.4421,2.00743 -1.6192,3.23083c-0.0777,0.6861 -0.3898,1.3244 -0.8835,1.8072c-0.4937,0.4828 -1.1388,0.7804 -1.8265,0.8428c-1.2234,0.1771 -2.35673,0.7451 -3.23082,1.6192c-0.87409,0.8741 -1.44208,2.0074 -1.61917,3.2308c-0.05996,0.6524 -0.33831,1.2655 -0.79,1.74l0,0c-0.77935,-1.6467 -1.12945,-3.4639 -1.01773,-5.2823c0.11172,-1.8184 0.68163,-3.579 1.6567,-5.118c0.97506,-1.53891 2.3236,-2.80619 3.92012,-3.68386c1.5965,-0.87767 3.3891,-1.3372 5.2109,-1.33585l-0.01,0.02zm-8.26999,17.81001c0.12,-0.11 0.24,-0.21 0.36,-0.33c0.88965,-0.8625 1.46071,-2.0011 1.62,-3.23c0.06458,-0.6908 0.37299,-1.336 0.86999,-1.82c0.4783,-0.4978 1.122,-0.8037 1.81,-0.86c1.2234,-0.1771 2.3567,-0.7451 3.2308,-1.6192c0.8741,-0.8741 1.4421,-2.0074 1.6192,-3.2308c0.0433,-0.7225 0.3533,-1.4032 0.87,-1.91c0.4901,-0.48815 1.1399,-0.7829 1.83,-0.83001c1.1239,-0.15463 2.1721,-0.65428 3,-1.42999c0.9427,0.78207 1.7413,1.72289 2.36,2.78c-0.038,0.0513 -0.0816,0.0983 -0.13,0.14c-0.4773,0.5022 -1.1202,0.8148 -1.81,0.88c-1.2247,0.174 -2.3597,0.741 -3.2344,1.6156c-0.8746,0.8747 -1.4416,2.0097 -1.6156,3.2344c-0.0705,0.6884 -0.3768,1.3313 -0.867,1.8197c-0.4903,0.4885 -1.1343,0.7924 -1.823,0.8603c-1.227,0.1757 -2.3645,0.7426 -3.2437,1.6163c-0.8791,0.8738 -1.453,2.0078 -1.6363,3.2337c-0.0538,0.4887 -0.2217,0.958 -0.49,1.37c-1.026,-0.6092 -1.9449,-1.3828 -2.71999,-2.29l0,0zm8.26999,3.86c-1.0147,0.0011 -2.0246,-0.1403 -3,-0.42c0.3337,-0.622 0.5506,-1.2999 0.64,-2c0.0701,-0.6869 0.375,-1.3286 0.8632,-1.8168c0.4882,-0.4882 1.1299,-0.7931 1.8168,-0.8632c1.2252,-0.1751 2.3608,-0.7422 3.2369,-1.6165c0.876,-0.8742 1.4455,-2.0087 1.6231,-3.2335c0.0701,-0.6869 0.375,-1.3286 0.8632,-1.8168c0.4882,-0.4882 1.1299,-0.7931 1.8168,-0.8632c0.922,-0.1199 1.8008,-0.4632 2.56,-1c0.4216,1.5979 0.4715,3.2711 0.146,4.8913c-0.3255,1.6202 -1.0179,3.1444 -2.0239,4.4555c-1.006,1.311 -2.2989,2.3743 -3.7797,3.1081c-1.4807,0.7338 -3.1098,1.1187 -4.7624,1.1251l0,0.05z"/>
 </g>
</svg>